<mxfile host="app.diagrams.net" modified="2021-02-17T09:09:14.992Z" agent="5.0 (Windows NT 10.0; Win64; x64) AppleWebKit/537.36 (KHTML, like Gecko) Chrome/88.0.4324.96 Safari/537.36 Edg/88.0.705.56" etag="Zo3Q5zG9kC6EHj6vI0s3" version="14.3.2" type="github">
  <diagram id="Tx5mmtmYuGHhAZEIdOvu" name="Page-1">
    <mxGraphModel dx="1422" dy="762" grid="1" gridSize="10" guides="1" tooltips="1" connect="1" arrows="1" fold="1" page="1" pageScale="1" pageWidth="827" pageHeight="1169" math="0" shadow="0">
      <root>
        <mxCell id="0" />
        <mxCell id="1" parent="0" />
        <mxCell id="tpdN3Cz0byx0JyNMBTbY-8" value="" style="edgeStyle=orthogonalEdgeStyle;rounded=0;orthogonalLoop=1;jettySize=auto;html=1;" edge="1" parent="1" source="tpdN3Cz0byx0JyNMBTbY-1" target="tpdN3Cz0byx0JyNMBTbY-2">
          <mxGeometry relative="1" as="geometry" />
        </mxCell>
        <mxCell id="tpdN3Cz0byx0JyNMBTbY-1" value="test1" style="rounded=0;whiteSpace=wrap;html=1;fillColor=#ffe6cc;strokeColor=#d79b00;strokeWidth=1;fontSize=20;" vertex="1" parent="1">
          <mxGeometry x="140" y="180" width="120" height="60" as="geometry" />
        </mxCell>
        <mxCell id="tpdN3Cz0byx0JyNMBTbY-9" style="edgeStyle=orthogonalEdgeStyle;rounded=0;orthogonalLoop=1;jettySize=auto;html=1;" edge="1" parent="1" source="tpdN3Cz0byx0JyNMBTbY-2" target="tpdN3Cz0byx0JyNMBTbY-7">
          <mxGeometry relative="1" as="geometry" />
        </mxCell>
        <mxCell id="tpdN3Cz0byx0JyNMBTbY-10" style="edgeStyle=orthogonalEdgeStyle;rounded=0;orthogonalLoop=1;jettySize=auto;html=1;" edge="1" parent="1" source="tpdN3Cz0byx0JyNMBTbY-2" target="tpdN3Cz0byx0JyNMBTbY-6">
          <mxGeometry relative="1" as="geometry" />
        </mxCell>
        <mxCell id="tpdN3Cz0byx0JyNMBTbY-2" value="Object1" style="rounded=1;whiteSpace=wrap;html=1;fillColor=#60a917;strokeColor=#2D7600;fontColor=#ffffff;fontSize=20;" vertex="1" parent="1">
          <mxGeometry x="140" y="280" width="120" height="60" as="geometry" />
        </mxCell>
        <mxCell id="tpdN3Cz0byx0JyNMBTbY-4" value="Object5" style="rounded=1;whiteSpace=wrap;html=1;fillColor=#60a917;strokeColor=#2D7600;fontColor=#ffffff;fontSize=20;" vertex="1" parent="1">
          <mxGeometry x="230" y="520" width="120" height="60" as="geometry" />
        </mxCell>
        <mxCell id="tpdN3Cz0byx0JyNMBTbY-5" value="Object4" style="rounded=1;whiteSpace=wrap;html=1;fillColor=#60a917;strokeColor=#2D7600;fontColor=#ffffff;fontSize=20;" vertex="1" parent="1">
          <mxGeometry x="40" y="520" width="120" height="60" as="geometry" />
        </mxCell>
        <mxCell id="tpdN3Cz0byx0JyNMBTbY-12" style="edgeStyle=orthogonalEdgeStyle;rounded=0;orthogonalLoop=1;jettySize=auto;html=1;entryX=0.5;entryY=0;entryDx=0;entryDy=0;" edge="1" parent="1" source="tpdN3Cz0byx0JyNMBTbY-6" target="tpdN3Cz0byx0JyNMBTbY-4">
          <mxGeometry relative="1" as="geometry" />
        </mxCell>
        <mxCell id="tpdN3Cz0byx0JyNMBTbY-6" value="Object3" style="rounded=1;whiteSpace=wrap;html=1;fillColor=#60a917;strokeColor=#2D7600;fontColor=#ffffff;fontSize=20;" vertex="1" parent="1">
          <mxGeometry x="230" y="400" width="120" height="60" as="geometry" />
        </mxCell>
        <mxCell id="tpdN3Cz0byx0JyNMBTbY-11" style="edgeStyle=orthogonalEdgeStyle;rounded=0;orthogonalLoop=1;jettySize=auto;html=1;entryX=0.5;entryY=0;entryDx=0;entryDy=0;" edge="1" parent="1" source="tpdN3Cz0byx0JyNMBTbY-7" target="tpdN3Cz0byx0JyNMBTbY-5">
          <mxGeometry relative="1" as="geometry" />
        </mxCell>
        <mxCell id="tpdN3Cz0byx0JyNMBTbY-7" value="Object2" style="rounded=1;whiteSpace=wrap;html=1;fillColor=#60a917;strokeColor=#2D7600;fontColor=#ffffff;fontSize=20;" vertex="1" parent="1">
          <mxGeometry x="40" y="400" width="120" height="60" as="geometry" />
        </mxCell>
        <mxCell id="tpdN3Cz0byx0JyNMBTbY-18" style="edgeStyle=orthogonalEdgeStyle;rounded=0;orthogonalLoop=1;jettySize=auto;html=1;entryX=0.5;entryY=0;entryDx=0;entryDy=0;" edge="1" parent="1" source="tpdN3Cz0byx0JyNMBTbY-13" target="tpdN3Cz0byx0JyNMBTbY-14">
          <mxGeometry relative="1" as="geometry" />
        </mxCell>
        <mxCell id="tpdN3Cz0byx0JyNMBTbY-19" style="edgeStyle=orthogonalEdgeStyle;rounded=0;orthogonalLoop=1;jettySize=auto;html=1;entryX=0.5;entryY=0;entryDx=0;entryDy=0;" edge="1" parent="1" source="tpdN3Cz0byx0JyNMBTbY-13" target="tpdN3Cz0byx0JyNMBTbY-15">
          <mxGeometry relative="1" as="geometry" />
        </mxCell>
        <mxCell id="tpdN3Cz0byx0JyNMBTbY-13" value="Object6" style="rounded=1;whiteSpace=wrap;html=1;fillColor=#f5f5f5;strokeColor=#666666;fontColor=#333333;fontSize=20;" vertex="1" parent="1">
          <mxGeometry x="470" y="280" width="120" height="60" as="geometry" />
        </mxCell>
        <mxCell id="tpdN3Cz0byx0JyNMBTbY-14" value="Object7" style="rounded=1;whiteSpace=wrap;html=1;fillColor=#f5f5f5;strokeColor=#666666;fontColor=#333333;fontSize=20;" vertex="1" parent="1">
          <mxGeometry x="390" y="400" width="120" height="60" as="geometry" />
        </mxCell>
        <mxCell id="tpdN3Cz0byx0JyNMBTbY-15" value="Object8" style="rounded=1;whiteSpace=wrap;html=1;fillColor=#f5f5f5;strokeColor=#666666;fontColor=#333333;fontSize=20;" vertex="1" parent="1">
          <mxGeometry x="550" y="400" width="120" height="60" as="geometry" />
        </mxCell>
        <mxCell id="tpdN3Cz0byx0JyNMBTbY-20" style="edgeStyle=orthogonalEdgeStyle;rounded=0;orthogonalLoop=1;jettySize=auto;html=1;entryX=0.5;entryY=0;entryDx=0;entryDy=0;" edge="1" parent="1" source="tpdN3Cz0byx0JyNMBTbY-16" target="tpdN3Cz0byx0JyNMBTbY-17">
          <mxGeometry relative="1" as="geometry" />
        </mxCell>
        <mxCell id="tpdN3Cz0byx0JyNMBTbY-16" value="Object9" style="rounded=1;whiteSpace=wrap;html=1;fillColor=#f5f5f5;strokeColor=#666666;fontColor=#333333;fontSize=20;" vertex="1" parent="1">
          <mxGeometry x="730" y="280" width="120" height="60" as="geometry" />
        </mxCell>
        <mxCell id="tpdN3Cz0byx0JyNMBTbY-17" value="Object10" style="rounded=1;whiteSpace=wrap;html=1;fillColor=#f5f5f5;strokeColor=#666666;fontColor=#333333;fontSize=20;" vertex="1" parent="1">
          <mxGeometry x="730" y="400" width="120" height="60" as="geometry" />
        </mxCell>
      </root>
    </mxGraphModel>
  </diagram>
</mxfile>
